<svg width="32" height="32" viewBox="0 0 64 64" fill="none" xmlns="http://www.w3.org/2000/svg">
  <defs>
    <linearGradient id="logo-grad" x1="0%" y1="100%" x2="100%" y2="0%">
      <stop offset="0%" stop-color="#8b5cf6" />
      <stop offset="50%" stop-color="#a855f7" />
      <stop offset="100%" stop-color="#ec4899" />
    </linearGradient>
    <filter id="glow" x="-20%" y="-20%" width="140%" height="140%">
      <feGaussianBlur stdDeviation="1.5" result="blur" />
      <feComposite in="SourceGraphic" in2="blur" operator="over" />
    </filter>
  </defs>
  
  <!-- Outer Leaf Contour -->
  <path d="M32 6C48 18 52 36 44 48C38 56 32 58 32 58C32 58 26 56 20 48C12 36 16 18 32 6Z" 
        stroke="url(#logo-grad)" stroke-width="2.5" stroke-linejoin="round" stroke-linecap="round" />
        
  <!-- Neural Stem -->
  <path d="M32 58V14" stroke="url(#logo-grad)" stroke-width="2" stroke-linecap="round" />
  
  <!-- Neural network connections (AI / RAG branches) -->
  <path d="M32 44L18 34" stroke="url(#logo-grad)" stroke-width="1.5" stroke-linecap="round" />
  <path d="M32 36L46 26" stroke="url(#logo-grad)" stroke-width="1.5" stroke-linecap="round" />
  <path d="M32 26L20 16" stroke="url(#logo-grad)" stroke-width="1.5" stroke-linecap="round" />
  <path d="M32 20L44 10" stroke="url(#logo-grad)" stroke-width="1.5" stroke-linecap="round" />

  <!-- Glowing Nodes -->
  <circle cx="32" cy="14" r="3" fill="#ec4899" filter="url(#glow)" />
  <circle cx="18" cy="34" r="2.5" fill="#a855f7" />
  <circle cx="46" cy="26" r="2.5" fill="#ec4899" />
  <circle cx="20" cy="16" r="2.5" fill="#a855f7" />
  <circle cx="44" cy="10" r="2.5" fill="#ec4899" filter="url(#glow)" />
</svg>
